<?xml version="1.0" standalone="no"?>
<!DOCTYPE svg PUBLIC "-//W3C//DTD SVG 20010904//EN"
 "http://www.w3.org/TR/2001/REC-SVG-20010904/DTD/svg10.dtd">
<svg version="1.0" xmlns="http://www.w3.org/2000/svg"
 width="500.000000pt" height="500.000000pt" viewBox="0 0 500.000000 500.000000"
 preserveAspectRatio="xMidYMid meet">

<g transform="translate(0.000000,500.000000) scale(0.100000,-0.100000)"
fill="#000000" stroke="none">
<path d="M1229 4590 c-9 -5 -20 -22 -23 -36 -9 -35 12 -58 89 -96 151 -76 233
-147 275 -239 24 -53 25 -197 10 -849 -5 -228 -14 -635 -20 -905 -5 -269 -12
-569 -15 -665 -3 -96 -10 -393 -16 -660 -11 -523 -19 -600 -65 -695 -38 -77
-93 -128 -192 -177 -95 -48 -103 -56 -105 -99 -3 -44 21 -57 69 -40 26 9 39
10 47 2 17 -17 32 -14 105 18 129 56 191 63 575 65 l349 1 19 24 c25 30 24 37
-6 66 -21 22 -33 25 -90 25 -60 0 -66 2 -77 25 -16 36 14 1311 37 1591 l6 71
82 28 c45 16 85 33 89 38 10 16 122 0 175 -25 131 -62 198 -202 267 -563 108
-562 161 -730 289 -920 100 -148 304 -301 466 -349 54 -16 213 -22 245 -10 23
9 20 41 -4 49 -43 14 -130 97 -174 167 -96 156 -133 285 -207 731 -60 360 -80
459 -124 593 -52 159 -108 261 -190 345 -102 105 -198 145 -390 161 -122 10
-258 3 -357 -18 -18 -4 -28 -2 -28 5 0 6 17 11 38 12 20 1 47 4 59 7 27 8 97
109 283 407 130 210 211 345 593 992 200 338 322 533 372 591 32 37 42 42 78
42 143 1 287 99 232 160 -15 16 -29 20 -81 19 -34 -1 -66 1 -70 4 -5 3 -49 -2
-99 -10 -67 -12 -171 -16 -401 -17 -346 -1 -344 -1 -344 -66 0 -48 19 -64 98
-84 73 -18 110 -40 118 -70 14 -59 -262 -595 -589 -1141 -139 -232 -445 -702
-502 -770 l-25 -30 0 72 c0 71 1 74 54 152 l53 79 7 208 c20 610 51 1285 62
1379 12 95 59 140 181 169 78 19 105 30 127 54 23 26 15 66 -18 87 -34 23
-201 20 -381 -6 -270 -39 -496 -15 -724 77 -78 31 -96 35 -115 25 -16 -9 -29
-9 -50 -2 -33 13 -46 13 -67 1z"/>
</g>
</svg>
